<svg id="spiral" xmlns="http://www.w3.org/2000/svg" viewBox="0 0 402 402" width="750" height="750">
  <path d="M 201,201 c0,0,0,0,-0,0 c-0,0,-2,1.1045694996,-2,-0 c0,-1.1045694996,-0.2091389992,-4,2,-4 c2.2091389992,0,6,0.6862915012,6,4 c0,3.3137084988,-1.5817220016,8,-6,8 c-4.4182779984,0,-10,-2.477152502,-10,-8 c0,-5.522847498,3.3725830024,-12,10,-12 c6.6274169976,0,14,4.2680135028,14,12 c0,7.7319864972,-5.1634440032,16,-14,16 c-8.8365559968,0,-18,-6.0588745036,-18,-16 c0,-9.9411254964,6.954305004,-20,18,-20 c11.045694996,0,22,7.8497355044,22,20 c0,12.1502644956,-8.7451660048,24,-22,24 c-13.2548339952,0,-26,-9.6405965052,-26,-24 c0,-14.3594034948,10.5360270056,-28,26,-28 c15.4639729944,0,30,11.431457506,30,28 c0,16.568542494,-12.3268880064,32,-30,32 c-17.6731119936,0,-34,-13.2223185068,-34,-32 c0,-18.7776814932,14.1177490072,-36,34,-36 c19.8822509928,0,38,15.0131795076,38,36 c0,20.9868204924,-15.908610008,40,-38,40 c-22.091389992,0,-42,-16.8040405084,-42,-40 c0,-23.1959594916,17.6994710088,-44,42,-44 c24.3005289912,0,46,18.5949015092,46,44 c0,25.4050984908,-19.4903320096,48,-46,48 c-26.5096679904,0,-50,-20.38576251,-50,-48 c0,-27.61423749,21.2811930104,-52,50,-52 c28.7188069896,0,54,22.1766235108,54,52 c0,29.8233764892,-23.0720540112,56,-54,56 c-30.9279459888,0,-58,-23.9674845116,-58,-56 c0,-32.0325154884,24.862915012,-60,58,-60 c33.137084988,0,62,25.7583455124,62,60 c0,34.2416544876,-26.6537760128,64,-62,64 c-35.3462239872,0,-66,-27.5492065132,-66,-64 c0,-36.4507934868,28.4446370136,-68,66,-68 c37.5553629864,0,70,29.340067514,70,68 c0,38.659932486,-30.2354980144,72,-70,72 c-39.7645019856,0,-74,-31.1309285148,-74,-72 c0,-40.8690714852,32.0263590152,-76,74,-76 c41.9736409848,0,78,32.9217895156,78,76 c0,43.0782104844,-33.817220016,80,-78,80 c-44.182779984,0,-82,-34.7126505164,-82,-80 c0,-45.2873494836,35.6080810168,-84,82,-84 c46.3919189832,0,86,36.5035115172,86,84 c0,47.4964884828,-37.3989420176,88,-86,88 c-48.6010579824,0,-90,-38.294372518,-90,-88 c0,-49.705627482,39.1898030184,-92,90,-92 c50.8101969816,0,94,40.0852335188,94,92 c0,51.9147664812,-40.9806640192,96,-94,96 c-53.0193359808,0,-98,-41.8760945196,-98,-96 c0,-54.1239054804,42.77152502,-100,98,-100 c55.22847498,0,102,43.6669555204,102,100 c0,56.3330444796,-44.5623860208,104,-102,104 c-57.4376139792,0,-106,-45.4578165212,-106,-104 c0,-58.5421834788,46.3532470216,-108,106,-108 c59.6467529784,0,110,47.248677522,110,108 c0,60.751322478,-48.1441080224,112,-110,112 c-61.8558919776,0,-114,-49.0395385228,-114,-112 c0,-62.9604614772,49.9349690232,-116,114,-116 c64.0650309768,0,118,50.8303995236,118,116 c0,65.1696004764,-51.725830024,120,-118,120 c-66.274169976,0,-122,-52.6212605244,-122,-120 c0,-67.3787394756,53.5166910248,-124,122,-124 c68.4833089752,0,126,54.4121215252,126,124 c0,69.5878784748,-55.3075520256,128,-126,128 c-70.6924479744,0,-130,-56.202982526,-130,-128 c0,-71.797017474,57.0984130264,-132,130,-132 c72.9015869736,0,134,57.9938435268,134,132 c0,74.0061564732,-58.8892740272,136,-134,136 c-75.1107259728,0,-138,-59.7847045276,-138,-136 c0,-76.2152954724,60.680135028,-140,138,-140 c77.319864972,0,142,61.5755655284,142,140 c0,78.4244344716,-62.4709960288,144,-142,144 c-79.5290039712,0,-146,-63.3664265292,-146,-144 c0,-80.6335734708,64.2618570296,-148,146,-148 c81.7381429704,0,150,65.15728753,150,148 c0,82.84271247,-66.0527180304,152,-150,152 c-83.9472819696,0,-154,-66.9481485308,-154,-152 c0,-85.0518514692,67.8435790312,-156,154,-156 c86.1564209688,0,158,68.7390095316,158,156 c0,87.2609904684,-69.634440032,160,-158,160 c-88.365559968,0,-162,-70.5298705324,-162,-160 c0,-89.4701294676,71.4253010328,-164,162,-164 c90.5746989672,0,166,72.3207315332,166,164 c0,91.6792684668,-73.2161620336,168,-166,168 c-92.7838379664,0,-170,-74.111592534,-170,-168 c0,-93.888407466,75.0070230344,-172,170,-172 c94.9929769656,0,174,75.9024535348,174,172 c0,96.0975464652,-76.7978840352,176,-174,176 c-97.2021159648,0,-178,-77.6933145356,-178,-176 c0,-98.3066854644,78.588745036,-180,178,-180 c99.411254964,0,182,79.4841755364,182,180 c0,100.5158244636,-80.3796060368,184,-182,184 c-101.6203939632,0,-186,-81.2750365372,-186,-184 c0,-102.7249634628,82.1704670376,-188,186,-188 c103.8295329624,0,190,83.065897538,190,188 c0,104.934102462,-83.9613280384,192,-190,192 c-106.0386719616,0,-194,-84.8567585388,-194,-192 c0,-107.1432414612,85.7521890392,-196,194,-196 c108.2478109608,0,198,86.6476195396,198,196" fill="none" stroke="#aaa" stroke-width="1">

    <animateTransform
      attributeName="transform"
      dur="3s"
      type="rotate"
      from="0 201 201"
      to="360 201 201"
      repeatCount="indefinite" />

  </path>
</svg>
